<svg xmlns="http://www.w3.org/2000/svg" viewBox="0 0 230 120" width="230" height="120" role="img" aria-label="Đồng hồ MC964 mặt sau">
  <defs><linearGradient id="cream-b" x1="0" y1="0" x2="0" y2="1"><stop offset="0%" stop-color="#FCF8EF"/><stop offset="100%" stop-color="#F3EEDF"/></linearGradient></defs>
  <rect x="3" y="50" width="9" height="22" rx="2" fill="#B8B8BE"/>
  <rect x="218" y="50" width="9" height="22" rx="2" fill="#B8B8BE"/>
  <rect x="12" y="8" width="206" height="100" rx="6" fill="url(#cream-b)" stroke="#888780" stroke-width="1"/>
  <rect x="19" y="14" width="192" height="88" rx="4" fill="none" stroke="#b3ac98" stroke-width="0.7"/>
  <g id="o-cam">
    <circle id="o-A" cx="56" cy="52" r="11" fill="#1f1f1f" stroke="#000" stroke-width="0.6"/><circle cx="56" cy="52" r="6" fill="#0d0d0d"/>
    <circle id="o-B" cx="92" cy="52" r="11" fill="#1f1f1f" stroke="#000" stroke-width="0.6"/><circle cx="92" cy="52" r="6" fill="#0d0d0d"/>
    <circle id="o-C" cx="128" cy="52" r="11" fill="#1f1f1f" stroke="#000" stroke-width="0.6"/><circle cx="128" cy="52" r="6" fill="#0d0d0d"/>
  </g>
  <rect x="40" y="68" width="108" height="24" rx="2" fill="none" stroke="#888780" stroke-width="0.7"/>
  <g font-family="Nunito,sans-serif" font-size="9" text-anchor="middle" fill="#333">
    <text x="56" y="84">A</text><text x="92" y="84">B</text><text x="128" y="84">C</text>
  </g>
  <text x="135" y="88" font-family="Nunito,sans-serif" font-size="8" font-style="italic" fill="#333">+10V</text>
  <g id="cong-tac-nguon">
    <rect x="176" y="28" width="18" height="32" rx="2.5" fill="#C04C4C" stroke="#7E2424" stroke-width="0.8"/>
    <text x="185" y="41" text-anchor="middle" font-family="Nunito,sans-serif" font-size="8" fill="#fff" font-style="italic">I</text>
    <text x="185" y="55" text-anchor="middle" font-family="Nunito,sans-serif" font-size="8" fill="#fff" font-style="italic">O</text>
  </g>
</svg>
