<svg xmlns="http://www.w3.org/2000/svg" xmlns:xlink="http://www.w3.org/1999/xlink" viewBox="80 105 125 70" width="125" height="70" style="fill:none">


        <svg xmlns="http://www.w3.org/2000/svg" class="role-diagram-draw-area"><g class="shapes-region" style="stroke: black; fill: none;"><g class="composite-shape"><path class="real" d=" M92,124.12 C92,118.53 96.53,114 102.12,114 L181.88,114 C187.47,114 192,118.53 192,124.12 L192,154.48 C192,160.07 187.47,164.6 181.88,164.6 L102.12,164.6 C96.53,164.6 92,160.07 92,154.48 Z" style="stroke-width: 1; stroke: rgb(0, 0, 0); fill: rgb(64, 117, 180); fill-opacity: 1;"/></g><g class="composite-shape"><path class="real" d=" M107,114.56 L177,114.56 L177,164.04 L107,164.04 Z" style="stroke-width: 1; stroke: rgb(0, 0, 0); fill: rgb(255, 255, 255); fill-opacity: 1;"/></g><g class="composite-shape"><path class="real" d=" M87,124.12 L92,124.12 L92,154.48 L87,154.48 Z" style="stroke-width: 1; stroke: rgb(0, 0, 0); fill: none; fill-opacity: 1;"/></g><g class="composite-shape"><path class="real" d=" M192.5,134 L196.6,134 L196.6,145.3 L192.5,145.3 Z" style="stroke-width: 1; stroke: rgb(0, 0, 0); fill: none; fill-opacity: 1;"/></g><g/></g><!-- react-empty: 23815 --><g/><g/><g/></svg>
        <svg xmlns="http://www.w3.org/2000/svg" xmlns:xlink="http://www.w3.org/1999/xlink" width="660" height="300" style="width:660px;height:300px;font-family:Asana-Math, Asana;background:#FFF;"></svg>
</svg>
