<svg xmlns="http://www.w3.org/2000/svg" xmlns:xlink="http://www.w3.org/1999/xlink" viewBox="74 30 122 198" width="122" height="198" style="fill:none">


        <svg xmlns="http://www.w3.org/2000/svg" class="role-diagram-draw-area" style="overflow: visible;"><g class="shapes-region" style="stroke: black; fill: none;"><g class="composite-shape"><path class="real" d=" M82,59 C82,47.29 91.49,37.8 103.2,37.8 L166.8,37.8 C178.51,37.8 188,47.29 188,59 L188,198.2 C188,209.91 178.51,219.4 166.8,219.4 L103.2,219.4 C91.49,219.4 82,209.91 82,198.2 Z" style="stroke-width: 1; stroke: rgb(0, 0, 0); fill: rgb(245, 166, 35); fill-opacity: 1;"/></g><g class="composite-shape"><path class="real" d=" M91,61.58 C91,52.97 97.97,46 106.58,46 L164.43,46 C173.03,46 180,52.97 180,61.58 L180,191.02 C180,199.63 173.03,206.6 164.43,206.6 L106.58,206.6 C97.97,206.6 91,199.63 91,191.02 Z" style="stroke-width: 1; stroke: rgb(0, 0, 0); fill: rgb(255, 255, 255); fill-opacity: 1;"/></g><g class="composite-shape"><path class="real" d=" M100,59 C100,54.58 103.58,51 108,51 L162,51 C166.42,51 170,54.58 170,59 L170,91 C170,91 170,91 170,91 L100,91 C100,91 100,91 100,91 Z" style="stroke-width: 1; stroke: rgb(0, 0, 0); fill: none; fill-opacity: 1;"/></g><g class="composite-shape"><path class="real" d=" M117.75,145.05 C117.75,134.69 126.14,126.3 136.5,126.3 C146.86,126.3 155.25,134.69 155.25,145.05 C155.25,155.41 146.86,163.8 136.5,163.8 C126.14,163.8 117.75,155.41 117.75,145.05 Z" style="stroke-width: 1; stroke: rgb(0, 0, 0); fill: none; fill-opacity: 1;"/></g><g class="composite-shape"><path class="real" d=" M101.66,101.32 C101.66,100.59 102.25,100 102.98,100 L116.68,100 C117.41,100 118,100.59 118,101.32 L118,105.28 C118,106.01 117.41,106.6 116.68,106.6 L102.98,106.6 C102.25,106.6 101.66,106.01 101.66,105.28 Z" style="stroke-width: 1; stroke: rgb(0, 0, 0); fill: rgb(245, 166, 35); fill-opacity: 1;"/></g><g class="composite-shape"><path class="real" d=" M160.4,190.3 C160.4,187.37 162.77,185 165.7,185 C168.63,185 171,187.37 171,190.3 C171,193.23 168.63,195.6 165.7,195.6 C162.77,195.6 160.4,193.23 160.4,190.3 Z" style="stroke-width: 1; stroke: rgb(0, 0, 0); fill: rgb(206, 6, 6); fill-opacity: 1;"/></g><g class="composite-shape"><path class="real" d=" M161.9,190.3 C161.9,188.2 163.6,186.5 165.7,186.5 C167.8,186.5 169.5,188.2 169.5,190.3 C169.5,192.4 167.8,194.1 165.7,194.1 C163.6,194.1 161.9,192.4 161.9,190.3 Z" style="stroke-width: 1; stroke: rgb(0, 0, 0); fill: rgb(255, 255, 255); fill-opacity: 1;"/></g><g class="grouped-shape"><g class="composite-shape"><path class="real" d=" M140.4,190.3 C140.4,187.37 142.77,185 145.7,185 C148.63,185 151,187.37 151,190.3 C151,193.23 148.63,195.6 145.7,195.6 C142.77,195.6 140.4,193.23 140.4,190.3 Z" style="stroke-width: 1; stroke: rgb(0, 0, 0); fill: none; fill-opacity: 1;"/></g><g class="composite-shape"><path class="real" d=" M141.9,190.3 C141.9,188.2 143.6,186.5 145.7,186.5 C147.8,186.5 149.5,188.2 149.5,190.3 C149.5,192.4 147.8,194.1 145.7,194.1 C143.6,194.1 141.9,192.4 141.9,190.3 Z" style="stroke-width: 1; stroke: rgb(0, 0, 0); fill: none; fill-opacity: 1;"/></g></g><g class="composite-shape"><path class="real" d=" M120.4,190.3 C120.4,187.37 122.77,185 125.7,185 C128.63,185 131,187.37 131,190.3 C131,193.23 128.63,195.6 125.7,195.6 C122.77,195.6 120.4,193.23 120.4,190.3 Z" style="stroke-width: 1; stroke: rgb(0, 0, 0); fill: rgb(164, 0, 0); fill-opacity: 1;"/></g><g class="composite-shape"><path class="real" d=" M121.9,190.3 C121.9,188.2 123.6,186.5 125.7,186.5 C127.8,186.5 129.5,188.2 129.5,190.3 C129.5,192.4 127.8,194.1 125.7,194.1 C123.6,194.1 121.9,192.4 121.9,190.3 Z" style="stroke-width: 1; stroke: rgb(0, 0, 0); fill: rgb(255, 255, 255); fill-opacity: 1;"/></g><g class="composite-shape"><path class="real" d=" M100.4,190.3 C100.4,187.37 102.77,185 105.7,185 C108.63,185 111,187.37 111,190.3 C111,193.23 108.63,195.6 105.7,195.6 C102.77,195.6 100.4,193.23 100.4,190.3 Z" style="stroke-width: 1; stroke: rgb(0, 0, 0); fill: rgb(194, 3, 3); fill-opacity: 1;"/></g><g class="composite-shape"><path class="real" d=" M101.9,190.3 C101.9,188.2 103.6,186.5 105.7,186.5 C107.8,186.5 109.5,188.2 109.5,190.3 C109.5,192.4 107.8,194.1 105.7,194.1 C103.6,194.1 101.9,192.4 101.9,190.3 Z" style="stroke-width: 1; stroke: rgb(0, 0, 0); fill: rgb(255, 255, 255); fill-opacity: 1;"/></g><g/></g><!-- react-empty: 3011 --><g/><g/><g/></svg>
        <svg xmlns="http://www.w3.org/2000/svg" xmlns:xlink="http://www.w3.org/1999/xlink" width="700" height="300" style="width:700px;height:300px;font-family:Asana-Math, Asana;background:#FFF;"><g transform="matrix(0.9999999390765166,-0.00034906584330943175,-0.017105998021484797,1.0000060320434758,2.2073251234537565,0.05387226115428234)"><g><g><text x="150.9375" y="124.58750915527344" style="white-space:pre;stroke:none;fill:rgb(0,0,0);fill-opacity:1;font-size:7.5px;font-family:&quot;Times New Roman&quot;, Times, serif;font-weight:400;font-style:normal;dominant-baseline:text-before-edge;text-decoration:none;">mA</text></g></g></g><g><g><g><text x="157.04998779296875" y="146.65000915527344" style="white-space:pre;stroke:none;fill:rgb(0,0,0);fill-opacity:1;font-size:7.5px;font-family:&quot;Times New Roman&quot;, Times, serif;font-weight:400;font-style:normal;dominant-baseline:text-before-edge;text-decoration:none;">μA</text></g></g></g><g><g><g><text x="111.54998779296875" y="124.65000915527344" style="white-space:pre;stroke:none;fill:rgb(0,0,0);fill-opacity:1;font-size:7.5px;font-family:&quot;Times New Roman&quot;, Times, serif;font-weight:400;font-style:normal;dominant-baseline:text-before-edge;text-decoration:none;">mV</text></g></g></g><g><g><g><text x="110.54998779296875" y="146.65000915527344" style="white-space:pre;stroke:none;fill:rgb(0,0,0);fill-opacity:1;font-size:7.5px;font-family:&quot;Times New Roman&quot;, Times, serif;font-weight:400;font-style:normal;dominant-baseline:text-before-edge;text-decoration:none;">V</text></g></g></g><g><g><g><text x="132.79998779296875" y="116.60002136230469" style="white-space:pre;stroke:none;fill:rgb(0,0,0);fill-opacity:1;font-size:7.5px;font-family:&quot;Times New Roman&quot;, Times, serif;font-weight:400;font-style:normal;dominant-baseline:text-before-edge;text-decoration:none;">Ω</text></g></g></g><g><g><g><text x="119.79998779296875" y="177.40000915527344" style="white-space:pre;stroke:none;fill:rgb(0,0,0);fill-opacity:1;font-size:5.25px;font-family:&quot;Times New Roman&quot;, Times, serif;font-weight:400;font-style:normal;dominant-baseline:text-before-edge;text-decoration:none;">mAμA</text></g></g></g><g><g><g><text x="103.79998779296875" y="177.40000915527344" style="white-space:pre;stroke:none;fill:rgb(0,0,0);fill-opacity:1;font-size:5.25px;font-family:&quot;Times New Roman&quot;, Times, serif;font-weight:400;font-style:normal;dominant-baseline:text-before-edge;text-decoration:none;">A</text></g></g></g><g><g><g><text x="139.79998779296875" y="178.1999969482422" style="white-space:pre;stroke:none;fill:rgb(0,0,0);fill-opacity:1;font-size:5.25px;font-family:&quot;Times New Roman&quot;, Times, serif;font-weight:400;font-style:normal;dominant-baseline:text-before-edge;text-decoration:none;">COM</text></g></g></g><g><g><g><text x="161.79998779296875" y="178.1999969482422" style="white-space:pre;stroke:none;fill:rgb(0,0,0);fill-opacity:1;font-size:5.25px;font-family:&quot;Times New Roman&quot;, Times, serif;font-weight:400;font-style:normal;dominant-baseline:text-before-edge;text-decoration:none;">VΩ</text></g></g></g></svg>
</svg>
