<svg xmlns="http://www.w3.org/2000/svg" xmlns:xlink="http://www.w3.org/1999/xlink" viewBox="76 112 122 50" width="122" height="50" style="fill:none">


        <svg xmlns="http://www.w3.org/2000/svg" class="role-diagram-draw-area" style="overflow: visible;"><g class="shapes-region" style="stroke: black; fill: none;"><g class="composite-shape"><path class="real" d=" M96.66,126.72 C96.66,123.23 99.49,120.4 102.98,120.4 L171.34,120.4 C174.83,120.4 177.66,123.23 177.66,126.72 L177.66,145.68 C177.66,149.17 174.83,152 171.34,152 L102.98,152 C99.49,152 96.66,149.17 96.66,145.68 Z" style="stroke-width: 1; stroke: rgb(0, 0, 0); fill: rgb(255, 255, 255); fill-opacity: 1;"/></g><g class="composite-shape"><path class="real" d=" M106.32,120.8 L113,120.8 L113,152 L106.32,152 Z" style="stroke-width: 1; stroke: rgb(0, 0, 0); fill: rgb(139, 87, 42); fill-opacity: 1;"/></g><g class="composite-shape"><path class="real" d=" M120.32,120.8 L127,120.8 L127,152 L120.32,152 Z" style="stroke-width: 1; stroke: rgb(0, 0, 0); fill: rgb(0, 0, 0); fill-opacity: 1;"/></g><g class="composite-shape"><path class="real" d=" M133.82,120.6 L140.5,120.6 L140.5,151.8 L133.82,151.8 Z" style="stroke-width: 1; stroke: rgb(0, 0, 0); fill: rgb(208, 2, 27); fill-opacity: 1;"/></g><g class="composite-shape"><path class="real" d=" M146.32,120.8 L153,120.8 L153,152 L146.32,152 Z" style="stroke-width: 1; stroke: rgb(0, 0, 0); fill: rgb(248, 231, 28); fill-opacity: 1;"/></g><g class="composite-shape"><path class="real" d=" M159.32,120.8 L166,120.8 L166,152 L159.32,152 Z" style="stroke-width: 1; stroke: rgb(0, 0, 0); fill: rgb(144, 19, 254); fill-opacity: 1;"/></g><g class="arrow-line"><path class="connection real" stroke-dasharray="" d="  M178,135 L189,134.6" style="stroke: rgb(0, 0, 0); stroke-width: 2; fill: none; fill-opacity: 1;"/></g><g class="arrow-line"><path class="connection real" stroke-dasharray="" d="  M85,134 L96,133.6" style="stroke: rgb(0, 0, 0); stroke-width: 2; fill: none; fill-opacity: 1;"/></g><g/></g><!-- react-empty: 36254 --><g/><g/><g/></svg>
        <svg xmlns="http://www.w3.org/2000/svg" xmlns:xlink="http://www.w3.org/1999/xlink" width="700" height="300" style="width:700px;height:300px;font-family:Asana-Math, Asana;background:#FFF;"></svg>
</svg>
