<svg xmlns="http://www.w3.org/2000/svg" xmlns:xlink="http://www.w3.org/1999/xlink" viewBox="91 88 90 84" width="90" height="84" style="fill:none">


        <svg xmlns="http://www.w3.org/2000/svg" class="role-diagram-draw-area" style="overflow: visible;"><g class="shapes-region" style="stroke: black; fill: none;"><g class="composite-shape"><path class="real" d=" M99,96.6 L171,96.6 L171,162.6 L99,162.6 Z" style="stroke-width: 1; stroke: rgb(0, 0, 0); fill: rgb(255, 255, 255); fill-opacity: 1;"/></g><g class="composite-shape"><path class="real" d=" M119.5,121.25 C119.5,112.55 126.55,105.5 135.25,105.5 C143.95,105.5 151,112.55 151,121.25 C151,129.95 143.95,137 135.25,137 C126.55,137 119.5,129.95 119.5,121.25 Z" style="stroke-width: 1; stroke: rgb(0, 0, 0); fill: rgb(74, 74, 74); fill-opacity: 1;"/></g><g class="composite-shape"><path class="real" d=" M109.4,149.3 C109.4,146.37 111.77,144 114.7,144 C117.63,144 120,146.37 120,149.3 C120,152.23 117.63,154.6 114.7,154.6 C111.77,154.6 109.4,152.23 109.4,149.3 Z" style="stroke-width: 1; stroke: rgb(0, 0, 0); fill: rgb(208, 2, 27); fill-opacity: 1;"/></g><g class="composite-shape"><path class="real" d=" M110.9,149.3 C110.9,147.2 112.6,145.5 114.7,145.5 C116.8,145.5 118.5,147.2 118.5,149.3 C118.5,151.4 116.8,153.1 114.7,153.1 C112.6,153.1 110.9,151.4 110.9,149.3 Z" style="stroke-width: 1; stroke: rgb(0, 0, 0); fill: rgb(255, 255, 255); fill-opacity: 1;"/></g><g class="composite-shape"><path class="real" d=" M149.4,149.3 C149.4,146.37 151.77,144 154.7,144 C157.63,144 160,146.37 160,149.3 C160,152.23 157.63,154.6 154.7,154.6 C151.77,154.6 149.4,152.23 149.4,149.3 Z" style="stroke-width: 1; stroke: rgb(0, 0, 0); fill: rgb(208, 2, 27); fill-opacity: 1;"/></g><g class="grouped-shape"><g class="composite-shape"><path class="real" d=" M130.4,149.3 C130.4,146.37 132.77,144 135.7,144 C138.63,144 141,146.37 141,149.3 C141,152.23 138.63,154.6 135.7,154.6 C132.77,154.6 130.4,152.23 130.4,149.3 Z" style="stroke-width: 1; stroke: rgb(0, 0, 0); fill: none; fill-opacity: 1;"/></g><g class="composite-shape"><path class="real" d=" M131.9,149.3 C131.9,147.2 133.6,145.5 135.7,145.5 C137.8,145.5 139.5,147.2 139.5,149.3 C139.5,151.4 137.8,153.1 135.7,153.1 C133.6,153.1 131.9,151.4 131.9,149.3 Z" style="stroke-width: 1; stroke: rgb(0, 0, 0); fill: none; fill-opacity: 1;"/></g></g><g class="composite-shape"><path class="real" d=" M150.9,149.3 C150.9,147.2 152.6,145.5 154.7,145.5 C156.8,145.5 158.5,147.2 158.5,149.3 C158.5,151.4 156.8,153.1 154.7,153.1 C152.6,153.1 150.9,151.4 150.9,149.3 Z" style="stroke-width: 1; stroke: rgb(0, 0, 0); fill: rgb(255, 255, 255); fill-opacity: 1;"/></g><g class="composite-shape"><path class="real" d=" M121.69,136.62 C117.43,132.87 114.75,127.37 114.75,121.25 C114.75,109.93 123.93,100.75 135.25,100.75 C146.57,100.75 155.75,109.93 155.75,121.25 C155.75,127.35 153.09,132.82 148.86,136.58 L135.25,121.25 Z" style="stroke-width: 1; stroke: none; fill: none; fill-opacity: 1;"/><path class="real" d=" M121.69,136.62 C117.43,132.87 114.75,127.37 114.75,121.25 C114.75,109.93 123.93,100.75 135.25,100.75 C146.57,100.75 155.75,109.93 155.75,121.25 C155.75,127.35 153.09,132.82 148.86,136.58" style="stroke-width: 1; stroke: rgb(0, 0, 0); fill: none; fill-opacity: 1;"/></g><g class="arrow-line"><path class="connection real" stroke-dasharray="" d="  M115,138.6 L121.69,136.62" style="stroke: rgb(0, 0, 0); stroke-width: 1; fill: none; fill-opacity: 1;"/></g><g class="arrow-line"><path class="connection real" stroke-dasharray="" d="  M148.86,136.58 L156,138.6" style="stroke: rgb(0, 0, 0); stroke-width: 1; fill: none; fill-opacity: 1;"/></g><g class="composite-shape"><path class="real" d=" M126.85,121.25 C126.85,116.61 130.61,112.85 135.25,112.85 C139.89,112.85 143.65,116.61 143.65,121.25 C143.65,125.89 139.89,129.65 135.25,129.65 C130.61,129.65 126.85,125.89 126.85,121.25 Z" style="stroke-width: 1; stroke: rgb(0, 0, 0); fill: rgb(0, 0, 0); fill-opacity: 1;"/></g><g class="arrow-line"><path class="connection real" stroke-dasharray="" d="  M135.25,137" style="stroke: rgb(0, 0, 0); stroke-width: 1; fill: none; fill-opacity: 1;"/></g><g class="arrow-line"><path class="connection real" stroke-dasharray="" d="  M119.5,121.25 L126.85,121.25" style="stroke: rgb(0, 0, 0); stroke-width: 1; fill: none; fill-opacity: 1;"/></g><g/></g><!-- react-empty: 26214 --><g/><g/><g/></svg>
        <svg xmlns="http://www.w3.org/2000/svg" xmlns:xlink="http://www.w3.org/1999/xlink" width="700" height="300" style="width:700px;height:300px;font-family:Asana-Math, Asana;background:#FFF;"><g><g><g><text x="100.79998779296875" y="99.60002136230469" style="white-space:pre;stroke:none;fill:rgb(0,0,0);fill-opacity:1;font-size:7.5px;font-family:&quot;Times New Roman&quot;, Times, serif;font-weight:400;font-style:normal;dominant-baseline:text-before-edge;text-decoration:none;">100Ω</text></g></g></g><g><g><g><text x="103.79998779296875" y="131.1000213623047" style="white-space:pre;stroke:none;fill:rgb(0,0,0);fill-opacity:1;font-size:7.5px;font-family:&quot;Times New Roman&quot;, Times, serif;font-weight:400;font-style:normal;dominant-baseline:text-before-edge;text-decoration:none;">0Ω</text></g></g></g><g><g><g><text x="153.79998779296875" y="130.8500213623047" style="white-space:pre;stroke:none;fill:rgb(0,0,0);fill-opacity:1;font-size:7.5px;font-family:&quot;Times New Roman&quot;, Times, serif;font-weight:400;font-style:normal;dominant-baseline:text-before-edge;text-decoration:none;">100Ω</text></g></g></g></svg>
</svg>
