<svg xmlns="http://www.w3.org/2000/svg" xmlns:xlink="http://www.w3.org/1999/xlink" viewBox="92 108 104 75" width="104" height="75" style="fill:none">


        <svg xmlns="http://www.w3.org/2000/svg" class="role-diagram-draw-area" style="overflow: visible;"><g class="shapes-region" style="stroke: black; fill: none;"><g class="composite-shape"><path class="real" d=" M105,116.6 L183,116.6 L183,174.6 L105,174.6 Z" style="stroke-width: 1; stroke: rgb(0, 0, 0); fill: rgb(0, 0, 0); fill-opacity: 1;"/></g><g class="composite-shape"><path class="real" d=" M109,120.8 L179,120.8 L179,170.2 L109,170.2 Z" style="stroke-width: 1; stroke: rgb(0, 0, 0); fill: rgb(255, 255, 255); fill-opacity: 1;"/></g><g class="composite-shape"><path class="real" d=" M129.2,145.5 C129.2,137.33 135.83,130.7 144,130.7 C152.17,130.7 158.8,137.33 158.8,145.5 C158.8,153.67 152.17,160.3 144,160.3 C135.83,160.3 129.2,153.67 129.2,145.5 Z" style="stroke-width: 1; stroke: rgb(0, 0, 0); fill: rgb(0, 0, 0); fill-opacity: 1;"/></g><g class="composite-shape"><path class="real" d=" M132.57,145.5 C132.57,139.19 137.69,134.07 144,134.07 C150.31,134.07 155.43,139.19 155.43,145.5 C155.43,151.81 150.31,156.93 144,156.93 C137.69,156.93 132.57,151.81 132.57,145.5 Z" style="stroke-width: 1; stroke: rgb(0, 0, 0); fill: rgb(208, 2, 27); fill-opacity: 1;"/></g><g class="composite-shape"><path class="real" d=" M100,135.6 L105,135.6 L105,155.6 L100,155.6 Z" style="stroke-width: 1; stroke: rgb(0, 0, 0); fill: rgb(155, 155, 155); fill-opacity: 1;"/></g><g class="composite-shape"><path class="real" d=" M183,135.6 L188,135.6 L188,155.6 L183,155.6 Z" style="stroke-width: 1; stroke: rgb(0, 0, 0); fill: rgb(155, 155, 155); fill-opacity: 1;"/></g><g/></g><!-- react-empty: 50048 --><g/><g/><g/></svg>
        <svg xmlns="http://www.w3.org/2000/svg" xmlns:xlink="http://www.w3.org/1999/xlink" width="700" height="300" style="width:700px;height:300px;font-family:Asana-Math, Asana;background:#FFF;"></svg>
</svg>
