<svg xmlns="http://www.w3.org/2000/svg" xmlns:xlink="http://www.w3.org/1999/xlink" viewBox="50 45 180 145" width="180" height="145" style="fill:none">


        <svg xmlns="http://www.w3.org/2000/svg" class="role-diagram-draw-area" style="overflow: visible;"><g class="shapes-region" style="stroke: black; fill: none;"><g class="composite-shape"><path class="real" d=" M59,51.9 L221,51.9 L221,176.9 L59,176.9 Z" style="stroke-width: 1; stroke: rgb(0, 0, 0); fill: rgb(255, 255, 255); fill-opacity: 1;"/></g><g class="composite-shape"><path class="real" d=" M68.4,146.4 C68.4,143.2 71,140.6 74.2,140.6 L112.6,140.6 C115.8,140.6 118.4,143.2 118.4,146.4 L118.4,163.8 C118.4,167 115.8,169.6 112.6,169.6 L74.2,169.6 C71,169.6 68.4,167 68.4,163.8 Z" style="stroke-width: 1; stroke: rgb(0, 0, 0); fill: none; fill-opacity: 1;"/></g><g class="composite-shape"><path class="real" d=" M160.4,146.4 C160.4,143.2 163,140.6 166.2,140.6 L203.6,140.6 C206.8,140.6 209.4,143.2 209.4,146.4 L209.4,163.8 C209.4,167 206.8,169.6 203.6,169.6 L166.2,169.6 C163,169.6 160.4,167 160.4,163.8 Z" style="stroke-width: 1; stroke: rgb(0, 0, 0); fill: none; fill-opacity: 1;"/></g><g class="composite-shape"><path class="real" d=" M130.2,104.6 C130.2,99.19 134.59,94.8 140,94.8 C145.41,94.8 149.8,99.19 149.8,104.6 C149.8,110.01 145.41,114.4 140,114.4 C134.59,114.4 130.2,110.01 130.2,104.6 M115.5,104.6 C115.5,91.07 126.47,80.1 140,80.1 C153.53,80.1 164.5,91.07 164.5,104.6 C164.5,118.13 153.53,129.1 140,129.1 C126.47,129.1 115.5,118.13 115.5,104.6" style="stroke-width: 1; stroke: rgb(0, 0, 0); fill: rgb(74, 74, 74); fill-opacity: 1; fill-rule: evenodd;"/></g><g class="composite-shape"><path class="real" d=" M130.2,104.6 C130.2,99.19 134.59,94.8 140,94.8 C145.41,94.8 149.8,99.19 149.8,104.6 C149.8,110.01 145.41,114.4 140,114.4 C134.59,114.4 130.2,110.01 130.2,104.6 Z" style="stroke-width: 1; stroke: rgb(0, 0, 0); fill: rgb(0, 0, 0); fill-opacity: 1;"/></g><g class="composite-shape"><path class="real" d=" M112.07,93.64 C116.44,82.49 127.3,74.6 140,74.6 C151.83,74.6 162.06,81.45 166.95,91.4 L140,104.6 Z" style="stroke-width: 1; stroke: none; fill: none; fill-opacity: 1;"/><path class="real" d=" M112.07,93.64 C116.44,82.49 127.3,74.6 140,74.6 C151.83,74.6 162.06,81.45 166.95,91.4" style="stroke-width: 1; stroke: rgb(0, 0, 0); fill: none; fill-opacity: 1;"/></g><g class="arrow-line"><path class="connection real" stroke-dasharray="" d="  M121.4,89.6 L132.4,97.6" style="stroke: rgb(0, 0, 0); stroke-width: 1; fill: none; fill-opacity: 1;"/></g><g class="arrow-line"><path class="connection real" stroke-dasharray="" d="  M107.4,90.6 L112.07,93.64" style="stroke: rgb(0, 0, 0); stroke-width: 1; fill: none; fill-opacity: 1;"/></g><g class="arrow-line"><path class="connection real" stroke-dasharray="" d="  M171.4,88.6 L166.95,91.4" style="stroke: rgb(0, 0, 0); stroke-width: 1; fill: none; fill-opacity: 1;"/></g><g class="arrow-line"><path class="connection real" stroke-dasharray="" d="  M140.4,74.2 L140.4,68.4" style="stroke: rgb(0, 0, 0); stroke-width: 1; fill: none; fill-opacity: 1;"/></g><g class="arrow-line"><path class="connection real" stroke-dasharray="" d="  M120.4,72.8 L125.4,78.8" style="stroke: rgb(0, 0, 0); stroke-width: 1; fill: none; fill-opacity: 1;"/></g><g class="arrow-line"><path class="connection real" stroke-dasharray="" d="  M156.4,79.8 L162.4,72.8" style="stroke: rgb(0, 0, 0); stroke-width: 1; fill: none; fill-opacity: 1;"/></g><g class="composite-shape"><path class="real" d=" M104.6,154.4 C104.6,152.85 105.85,151.6 107.4,151.6 C108.95,151.6 110.2,152.85 110.2,154.4 C110.2,155.95 108.95,157.2 107.4,157.2 C105.85,157.2 104.6,155.95 104.6,154.4 M100.4,154.4 C100.4,150.53 103.53,147.4 107.4,147.4 C111.27,147.4 114.4,150.53 114.4,154.4 C114.4,158.27 111.27,161.4 107.4,161.4 C103.53,161.4 100.4,158.27 100.4,154.4" style="stroke-width: 1; stroke: rgb(0, 0, 0); fill: rgb(0, 0, 0); fill-opacity: 1; fill-rule: evenodd;"/></g><g class="composite-shape"><path class="real" d=" M75.6,154.4 C75.6,152.85 76.85,151.6 78.4,151.6 C79.95,151.6 81.2,152.85 81.2,154.4 C81.2,155.95 79.95,157.2 78.4,157.2 C76.85,157.2 75.6,155.95 75.6,154.4 M71.4,154.4 C71.4,150.53 74.53,147.4 78.4,147.4 C82.27,147.4 85.4,150.53 85.4,154.4 C85.4,158.27 82.27,161.4 78.4,161.4 C74.53,161.4 71.4,158.27 71.4,154.4" style="stroke-width: 1; stroke: rgb(0, 0, 0); fill: rgb(0, 0, 0); fill-opacity: 1; fill-rule: evenodd;"/></g><g class="composite-shape"><path class="real" d=" M167.6,154.4 C167.6,152.85 168.85,151.6 170.4,151.6 C171.95,151.6 173.2,152.85 173.2,154.4 C173.2,155.95 171.95,157.2 170.4,157.2 C168.85,157.2 167.6,155.95 167.6,154.4 M163.4,154.4 C163.4,150.53 166.53,147.4 170.4,147.4 C174.27,147.4 177.4,150.53 177.4,154.4 C177.4,158.27 174.27,161.4 170.4,161.4 C166.53,161.4 163.4,158.27 163.4,154.4" style="stroke-width: 1; stroke: rgb(0, 0, 0); fill: rgb(0, 0, 0); fill-opacity: 1; fill-rule: evenodd;"/></g><g class="composite-shape"><path class="real" d=" M196.6,154.4 C196.6,152.85 197.85,151.6 199.4,151.6 C200.95,151.6 202.2,152.85 202.2,154.4 C202.2,155.95 200.95,157.2 199.4,157.2 C197.85,157.2 196.6,155.95 196.6,154.4 M192.4,154.4 C192.4,150.53 195.53,147.4 199.4,147.4 C203.27,147.4 206.4,150.53 206.4,154.4 C206.4,158.27 203.27,161.4 199.4,161.4 C195.53,161.4 192.4,158.27 192.4,154.4" style="stroke-width: 1; stroke: rgb(0, 0, 0); fill: rgb(208, 2, 27); fill-opacity: 1; fill-rule: evenodd;"/></g><g class="composite-shape"><path class="real" d=" M189.49,87.77 C189.49,84.52 192.12,81.89 195.36,81.89 C198.6,81.89 201.23,84.52 201.23,87.76 C201.23,91 198.61,93.63 195.36,93.63 C192.12,93.64 189.49,91.01 189.49,87.77 Z" style="stroke-width: 1; stroke: rgb(0, 0, 0); fill: rgb(126, 211, 33); fill-opacity: 1;"/></g><g class="composite-shape"><path class="real" d=" M186.41,87.76 C186.41,82.82 190.42,78.81 195.36,78.81 C200.31,78.81 204.32,82.82 204.32,87.76 C204.32,92.71 200.31,96.72 195.36,96.72 C190.42,96.72 186.41,92.71 186.41,87.76 Z" style="stroke-width: 1; stroke: rgb(0, 0, 0); fill: none; fill-opacity: 1;"/></g><g class="composite-shape"><path class="real" d=" M189.49,111.77 C189.49,108.52 192.12,105.89 195.36,105.89 C198.6,105.89 201.23,108.52 201.23,111.76 C201.23,115 198.61,117.63 195.36,117.63 C192.12,117.64 189.49,115.01 189.49,111.77 Z" style="stroke-width: 1; stroke: rgb(0, 0, 0); fill: rgb(208, 2, 27); fill-opacity: 1;"/></g><g class="composite-shape"><path class="real" d=" M186.41,111.76 C186.41,106.82 190.42,102.81 195.36,102.81 C200.31,102.81 204.32,106.82 204.32,111.76 C204.32,116.71 200.31,120.72 195.36,120.72 C190.42,120.72 186.41,116.71 186.41,111.76 Z" style="stroke-width: 1; stroke: rgb(0, 0, 0); fill: none; fill-opacity: 1;"/></g><g class="composite-shape"><path class="real" d=" M192.4,64.74 C192.41,66.4 193.76,67.74 195.41,67.73 C197.07,67.72 198.4,66.37 198.4,64.72 C198.39,63.06 197.04,61.72 195.38,61.73 C193.73,61.74 192.39,63.09 192.4,64.74 Z" style="stroke-width: 1; stroke: rgb(0, 0, 0); fill: rgb(132, 5, 5); fill-opacity: 1;"/></g><g/></g><!-- react-empty: 50935 --><g/><g/><g/></svg>
        <svg xmlns="http://www.w3.org/2000/svg" xmlns:xlink="http://www.w3.org/1999/xlink" width="700" height="300" style="width:700px;height:300px;font-family:Asana-Math, Asana;background:#FFF;"><g><g><g><text x="177.79998779296875" y="128.6000213623047" style="white-space:pre;stroke:none;fill:rgb(0,0,0);fill-opacity:1;font-size:10.5px;font-family:Arial, Helvetica, sans-serif;font-weight:400;font-style:normal;dominant-baseline:text-before-edge;text-decoration:none;">DC</text></g></g></g><g><g><g><text x="87.79998779296875" y="128.6000213623047" style="white-space:pre;stroke:none;fill:rgb(0,0,0);fill-opacity:1;font-size:10.5px;font-family:Arial, Helvetica, sans-serif;font-weight:400;font-style:normal;dominant-baseline:text-before-edge;text-decoration:none;">AC</text></g></g></g><g><g><g><text x="101.79998779296875" y="81.60002136230469" style="white-space:pre;stroke:none;fill:rgb(0,0,0);fill-opacity:1;font-size:10.5px;font-family:&quot;Times New Roman&quot;, Times, serif;font-weight:400;font-style:normal;dominant-baseline:text-before-edge;text-decoration:none;">3</text></g></g></g><g><g><g><text x="171.79998779296875" y="81.60002136230469" style="white-space:pre;stroke:none;fill:rgb(0,0,0);fill-opacity:1;font-size:10.5px;font-family:&quot;Times New Roman&quot;, Times, serif;font-weight:400;font-style:normal;dominant-baseline:text-before-edge;text-decoration:none;">15</text></g></g></g><g><g><g><text x="137.79998779296875" y="57.60002136230469" style="white-space:pre;stroke:none;fill:rgb(0,0,0);fill-opacity:1;font-size:10.5px;font-family:&quot;Times New Roman&quot;, Times, serif;font-weight:400;font-style:normal;dominant-baseline:text-before-edge;text-decoration:none;">9</text></g></g></g><g><g><g><text x="196.79998779296875" y="159.6000213623047" style="white-space:pre;stroke:none;fill:rgb(0,0,0);fill-opacity:1;font-size:10.5px;font-family:Arial, Helvetica, sans-serif;font-weight:400;font-style:normal;dominant-baseline:text-before-edge;text-decoration:none;">+</text></g></g></g><g><g><g><text x="169.1875" y="158.9875030517578" style="white-space:pre;stroke:none;fill:rgb(0,0,0);fill-opacity:1;font-size:10.5px;font-family:Arial, Helvetica, sans-serif;font-weight:400;font-style:normal;dominant-baseline:text-before-edge;text-decoration:none;">-</text></g></g></g><g><g><g><text x="126.79998779296875" y="129.40000915527344" style="white-space:pre;stroke:none;fill:rgb(0,0,0);fill-opacity:1;font-size:10.5px;font-family:&quot;Times New Roman&quot;, Times, serif;font-weight:400;font-style:normal;dominant-baseline:text-before-edge;text-decoration:none;">VOLT</text></g></g></g></svg>
</svg>
